:SAMPLES-PER-SECOND 30
:FULLY-SPECIFIED
:DEGREES
163
root  -20.1594 34.1416 13.6832 -167.304 19.4005 -161.466
RightUpLeg  -48.2967 -12.279 -7.20791
RightLeg  35.6738 -10.4651 -6.48522
RightFoot  24.7628 1.27761 -5.20726
RightToes  -59.7176 -0.391882 -0.397484
Spine  5.35173 -4.19752 -0.34721
Spine1  10.3549 -9.04502 0.53489
HEad  -35.2752 -19.3802 8.20285
LeftShoulder1  -1.94126e-019 -3.10601e-018 -2.51263e-017
LeftArm  -30.2466 -53.8388 -41.4261
LeftForeArm  46.1097 -62.1734 -16.7996
LeftHand  -1.38433 -3.54904 18.1222
RightShoulder  -4.96962e-017 0 -2.36833e-017
RightArm  -67.3667 -42.8021 61.0058
RightForeArm  33.4893 27.1301 4.06025
RightHand  0.274066 -7.36155 -17.0991
LeftUpLeg  -29.703 8.29513 15.5009
LeftLeg  40.4302 -1.72215 -1.29215
LeftFoot  -5.53215 0.00551642 0.275674
LeftToes  -0.823425 1.9075e-006 4.29692e-008
164
root  -20.1557 35.259 13.5087 -167.418 18.2095 -160.584
RightUpLeg  -47.895 -15.5837 -4.77907
RightLeg  41.3291 -8.86419 -6.80082
RightFoot  15.3756 0.477503 -2.93597
RightToes  -26.6277 -0.121402 -0.227858
Spine  5.14656 -5.12268 0.0288846
Spine1  9.9504 -10.8611 1.11946
HEad  -32.0132 -17.2451 7.26036
LeftShoulder1  -1.94126e-019 -3.10601e-018 -2.51263e-017
LeftArm  -23.3755 -47.6424 -49.3027
LeftForeArm  37.9669 -58.9732 -15.224
LeftHand  -1.10307 -3.00085 15.4407
RightShoulder  -4.96962e-017 0 -2.36833e-017
RightArm  -68.4783 -42.2422 63.2211
RightForeArm  32.2203 26.6331 4.00932
RightHand  0.517305 -8.53426 -19.5554
LeftUpLeg  -25.2827 6.40837 16.5252
LeftLeg  31.9466 -0.783668 -0.426241
LeftFoot  0.621714 0.000577026 0.0551692
LeftToes  -1.09197 1.9075e-006 4.29692e-008
165
root  -20.1513 36.1199 13.3696 -167.423 17.7477 -161.467
RightUpLeg  -48.8264 -15.5812 -4.96112
RightLeg  52.0471 -0.0739983 -0.138721
RightFoot  14.4018 0.0725832 -0.0350689
RightToes  -22.4975 -0.0958143 -0.196593
Spine  4.39719 -5.6528 -0.216291
Spine1  8.57297 -11.7862 0.484897
HEad  -29.3663 -15.0786 6.57846
LeftShoulder1  -1.94126e-019 -3.10601e-018 -2.51263e-017
LeftArm  -20.151 -38.1121 -52.083
LeftForeArm  37.8205 -59.3343 -15.5022
LeftHand  -1.03855 -3.9716 13.1122
RightShoulder  -4.96962e-017 0 -2.36833e-017
RightArm  -68.4506 -43.317 66.7324
RightForeArm  30.1652 27.7313 4.35036
RightHand  0.531333 -8.71737 -19.0131
LeftUpLeg  -23.4667 4.94744 15.9013
LeftLeg  27.183 0.183031 0.0755145
LeftFoot  8.84104 0.00533792 0.0924593
LeftToes  -10.0067 1.9075e-006 4.29692e-008
166
root  -20.0677 36.6703 13.2799 -167.182 18.6904 -162.895
RightUpLeg  -49.6888 -14.654 -4.70279
RightLeg  62.247 3.35049 5.35855
RightFoot  18.0271 -0.228427 1.94365
RightToes  -27.9308 -0.129935 -0.237331
Spine  3.71449 -5.27905 -0.528889
Spine1  7.34127 -10.8271 -0.288778
HEad  -29.4127 -14.8292 6.86101
LeftShoulder1  -1.94126e-019 -3.10601e-018 -2.51263e-017
LeftArm  -17.8947 -28.9095 -52.4467
LeftForeArm  44.4563 -60.7056 -15.8492
LeftHand  -1.20416 -4.32103 14.618
RightShoulder  -4.96962e-017 0 -2.36833e-017
RightArm  -66.37 -45.199 70.1703
RightForeArm  29.1573 29.6828 4.84233
RightHand  0.358825 -8.08955 -16.243
LeftUpLeg  -23.4642 6.61914 14.6954
LeftLeg  25.9617 -1.14586 -0.473308
LeftFoot  15.3534 0.0536541 -0.236549
LeftToes  -20.3679 1.9075e-006 4.29692e-008
167
root  -20.0088 36.8334 13.2437 -166.625 19.7973 -163.5
RightUpLeg  -49.7017 -15.4125 -2.5457
RightLeg  69.6882 2.16109 4.67355
RightFoot  23.3839 -0.316493 2.0394
RightToes  -30.3036 -0.146017 -0.25407
Spine  3.23085 -4.50677 -0.703076
Spine1  6.44421 -9.16254 -0.688042
HEad  -31.4484 -16.4352 8.20673
LeftShoulder1  -1.94126e-019 -3.10601e-018 -2.51263e-017
LeftArm  -16.6273 -21.247 -52.2789
LeftForeArm  46.8802 -61.8481 -16.5032
LeftHand  -1.22071 -4.02611 15.2571
RightShoulder  -4.96962e-017 0 -2.36833e-017
RightArm  -64.3054 -46.177 72.761
RightForeArm  31.0858 30.4508 4.9118
RightHand  0.0127732 -5.68789 -12.2707
LeftUpLeg  -24.5407 6.85697 14.7609
LeftLeg  27.2944 -1.91524 -0.841124
LeftFoot  18.0355 0.10992 -0.53111
LeftToes  -35.5038 1.9075e-006 4.29692e-008
168
root  -20.0462 36.6051 13.1373 -166.258 20.5067 -164.078
RightUpLeg  -48.0876 -17.653 -0.247408
RightLeg  73.4092 -0.123306 -0.556245
RightFoot  29.2163 0.210771 -0.266812
RightToes  -32.7359 -0.163207 -0.270524
Spine  2.93806 -3.91164 -0.842066
Spine1  5.89412 -7.93696 -0.957674
HEad  -33.9117 -17.9747 9.36896
LeftShoulder1  -1.94126e-019 -3.10601e-018 -2.51263e-017
LeftArm  -16.5726 -13.5376 -51.2966
LeftForeArm  41.7676 -64.0495 -19.0668
LeftHand  -1.01632 -3.21038 13.9233
RightShoulder  -4.96962e-017 0 -2.36833e-017
RightArm  -65.4415 -45.0472 74.7558
RightForeArm  33.7378 30.2182 4.7097
RightHand  -0.228512 -2.9366 -10.3348
LeftUpLeg  -24.7125 2.73654 15.4369
LeftLeg  27.6807 0.555032 0.24294
LeftFoot  10.8671 -0.00776819 0.243179
LeftToes  -27.4619 1.9075e-006 4.29692e-008
169
root  -20.1135 35.9664 12.9256 -166.478 22.448 -164.948
RightUpLeg  -44.5416 -19.1378 0.832215
RightLeg  72.9719 -0.528286 -1.61192
RightFoot  28.909 0.347459 -0.799845
RightToes  -33.9837 -0.172293 -0.278678
Spine  2.75821 -3.13608 -1.17491
Spine1  5.55929 -6.3563 -1.59881
HEad  -35.7955 -18.8232 10.0885
LeftShoulder1  -1.94126e-019 -3.10601e-018 -2.51263e-017
LeftArm  -17.3279 -5.72109 -50.0279
LeftForeArm  36.9063 -65.0554 -20.7553
LeftHand  -0.873819 -2.33525 13.3149
RightShoulder  -4.96962e-017 0 -2.36833e-017
RightArm  -64.9977 -43.192 75.7963
RightForeArm  32.7711 31.3445 5.02015
RightHand  -0.191744 -3.47109 -10.8787
LeftUpLeg  -23.6219 -1.0565 15.2093
LeftLeg  27.963 4.99627 2.24573
LeftFoot  10.3004 -0.0857198 1.11256
LeftToes  -23.7671 1.9075e-006 4.29692e-008
170
root  -20.1883 34.9778 12.6929 -166.118 25.8179 -165.616
RightUpLeg  -40.4203 -19.0982 1.52258
RightLeg  68.419 1.62832 3.28994
RightFoot  24.6718 -0.228956 1.56479
RightToes  -34.907 -0.179129 -0.284583
Spine  2.3891 -2.06118 -1.28681
Spine1  4.84494 -4.12252 -1.88365
HEad  -38.1721 -19.171 10.3489
LeftShoulder1  -1.94126e-019 -3.10601e-018 -2.51263e-017
LeftArm  -18.2822 1.57174 -49.399
LeftForeArm  37.5027 -64.281 -19.8585
LeftHand  -0.901868 -1.85222 14.6104
RightShoulder  -4.96962e-017 0 -2.36833e-017
RightArm  -63.5991 -41.2984 75.5141
RightForeArm  33.2541 35.0512 5.9006
RightHand  -0.131999 -4.15018 -11.0092
LeftUpLeg  -23.3827 1.72971 13.5354
LeftLeg  30.3909 5.86896 2.94058
LeftFoot  0.274318 -3.13868e-005 0.174737
LeftToes  -13.9659 1.9075e-006 4.29692e-008
